<?xml version="1.0" encoding="UTF-8" standalone="no"?>
<!-- Created with Inkscape (http://www.inkscape.org/) -->

<svg
   width="600"
   height="600"
   viewBox="0 0 158.75 158.75"
   version="1.1"
   id="svg16322"
   xml:space="preserve"
   sodipodi:docname="best-chargeback-alerts.svg"
   inkscape:export-filename="honeytoken"
   inkscape:export-xdpi="96"
   inkscape:export-ydpi="96"
   xmlns:inkscape="http://www.inkscape.org/namespaces/inkscape"
   xmlns:sodipodi="http://sodipodi.sourceforge.net/DTD/sodipodi-0.dtd"
   xmlns="http://www.w3.org/2000/svg"
   xmlns:svg="http://www.w3.org/2000/svg"><sodipodi:namedview
     id="namedview26631"
     pagecolor="#ffffff"
     bordercolor="#000000"
     borderopacity="0.25"
     inkscape:showpageshadow="2"
     inkscape:pageopacity="0.0"
     inkscape:pagecheckerboard="0"
     inkscape:deskcolor="#d1d1d1"
     showgrid="false" /><defs
     id="defs16319"><style
       id="style619">.cls-1{fill:#7c7d7d;}.cls-2{fill:#f16f39;}.cls-3{fill:#f8834b;}.cls-4{fill:#ef6833;}.cls-5{fill:#747575;}.cls-6{fill:#ffba55;}.cls-7{fill:#dad7e5;}.cls-8{fill:#edebf2;}.cls-9{fill:#fc6;}</style><style
       id="style565">.cls-1{fill:url(#linear-gradient);}.cls-2{fill:url(#linear-gradient-2);}.cls-3{fill:url(#linear-gradient-3);}.cls-4{fill:url(#linear-gradient-4);}.cls-5{fill:url(#linear-gradient-5);}.cls-6{fill:url(#linear-gradient-6);}.cls-7{fill:url(#linear-gradient-7);}.cls-8{fill:url(#linear-gradient-8);}.cls-9{fill:url(#linear-gradient-9);}.cls-10{fill:url(#linear-gradient-10);}.cls-11{fill:url(#linear-gradient-11);}.cls-12{fill:url(#linear-gradient-12);}.cls-13{fill:url(#linear-gradient-13);}.cls-14{fill:url(#linear-gradient-14);}.cls-15{fill:url(#linear-gradient-15);}.cls-16{fill:url(#linear-gradient-16);}</style><style
       id="style1344">.cls-1{fill:#42a5f5;}.cls-2{fill:#424242;}</style><style
       id="style2375">.cls-1{fill:#42a5f5;}.cls-2{fill:#424242;}</style><style
       id="style19315">.cls-1{fill:#6fabe6;}.cls-2{fill:#82bcf4;}.cls-3{fill:#374f68;}.cls-4{fill:#425b72;}.cls-5{fill:#dad7e5;}.cls-6{fill:#edebf2;}</style></defs><g
     id="layer1"
     transform="translate(-119.55968,-29.482946)"
     style="display:inline"><g
       id="g14423"
       transform="matrix(0.02549244,0,0,0.02549244,134.87625,47.480125)"
       style="clip-rule:evenodd;fill-rule:evenodd;image-rendering:optimizeQuality;shape-rendering:geometricPrecision;text-rendering:geometricPrecision"><g
         id="g19121"
         transform="matrix(1.9163063,0,0,1.9163063,550.54253,646.8949)"><circle
           style="fill:#bee0ed;fill-opacity:1;stroke-width:0.264999;paint-order:stroke fill markers"
           id="path236"
           cx="105"
           cy="148.5"
           r="41.42083"
           transform="matrix(39.227317,0,0,39.227317,-3094.8683,-4906.4096)" /></g></g></g><style
     type="text/css"
     id="style3522">
	.st0{fill:#4671C6;}
	.st1{fill:#F9CFCF;}
	.st2{fill:#F9A7A7;}
	.st3{fill:#A4C9FF;}
	.st4{fill:#3762CC;}
	.st5{fill:#E0EBFC;}
	.st6{fill:#6BDDDD;}
	.st7{fill:#B9BEFC;}
	.st8{fill:#FFEA92;}
	.st9{fill:#EAA97D;}
	.st10{fill:#FFEA94;}
	.st11{fill:#FFE164;}
	.st12{fill:#FFDC85;}
	.st13{fill:#FFFFFF;}
	.st14{fill:#383838;}
</style><g
     id="g27600"
     transform="matrix(1.0440503,0,0,1.0440503,0.45152537,-11.044172)"><g
       id="Credit_Card_Magnifiy"
       data-name="Credit Card Magnifiy"
       transform="matrix(2.251773,0,0,2.251773,24.206561,25.46539)"
       style="clip-rule:evenodd;display:inline;fill-rule:evenodd;image-rendering:optimizeQuality;shape-rendering:geometricPrecision;text-rendering:geometricPrecision"><g
         id="g19631"
         transform="matrix(1.0388925,0,0,1.0388925,-0.03889265,1.5355911)"><path
           class="cls-1"
           d="m 43,6 c 0,26.28 0.06,24.24 -0.13,24.87 A 3,3 0 0 1 40,33 H 4 A 3,3 0 0 1 1,30 V 6 A 3,3 0 0 1 4,3 h 36 a 3,3 0 0 1 3,3 z"
           id="path19321" /><path
           class="cls-2"
           d="M 43,6 C 43,31.11 43.06,29.24 42.87,29.87 42.23,30.06 45,30 7,30 A 3,3 0 0 1 4,27 C 4,1.89 3.94,3.76 4.13,3.13 4.77,2.94 2,3 40,3 a 3,3 0 0 1 3,3 z"
           id="path19323" /><rect
           class="cls-3"
           x="1"
           y="9"
           width="42"
           height="5"
           id="rect19325" /><path
           class="cls-4"
           d="m 43,9 v 3 H 7 A 3,3 0 0 1 4,9 Z"
           id="path19327" /><rect
           class="cls-5"
           x="5"
           y="19"
           width="20"
           height="4"
           id="rect19329" /><path
           class="cls-6"
           d="m 25,19 v 2 H 10 A 2,2 0 0 1 8,19 Z"
           id="path19331" /><path
           class="cls-6"
           d="M 9,30 H 5 a 1,1 0 0 1 0,-2 h 4 a 1,1 0 0 1 0,2 z"
           id="path19333" /><path
           class="cls-6"
           d="m 17,30 h -4 a 1,1 0 0 1 0,-2 h 4 a 1,1 0 0 1 0,2 z"
           id="path19335" /><path
           class="cls-6"
           d="m 25,30 h -4 a 1,1 0 0 1 0,-2 h 4 a 1,1 0 0 1 0,2 z"
           id="path19337" /></g></g><g
       id="Honey-1"
       transform="matrix(0.26458333,0,0,0.26458333,-138.83128,0.05184806)"
       style="display:inline"><g
         id="g27161"
         transform="matrix(1.7330877,0,0,1.7549076,367.42831,-5.4436496)"
         style="display:inline"><circle
           cx="213.33333"
           cy="277.33334"
           r="21.33333"
           style="fill:#ef7f00"
           id="circle26774-1" /><path
           d="m 148.15443,213.33333 c 0,21.33334 19.27027,21.23632 19.27027,21.23632 C 188.75803,234.56965 192,256 213.33333,256 234.66666,256 234.66667,234.66667 256,234.66667 c 21.33333,0 21.33333,21.33333 42.66667,21.33333 21.33334,0 24.28057,-20.75121 45.6139,-20.75121 21.33333,0 18.3861,-21.91546 18.3861,-21.91546 z"
           style="fill:#e76400"
           id="path26776-7"
           sodipodi:nodetypes="ccsssscc" /><path
           d="M 170.66667,234.66667 C 192,234.66667 192,256 213.33333,256 234.66666,256 234.66667,234.66667 256,234.66667 c 21.33333,0 21.33333,21.33333 42.66667,21.33333 21.33334,0 24.47706,-51.99164 24.47706,-51.99164 0,0 -3.14373,9.32497 -24.47706,9.32497 H 149.33333 c 0,21.33334 21.33334,21.33334 21.33334,21.33334 z"
           style="fill:#ef7f00"
           id="path26778-0"
           sodipodi:nodetypes="cssscscc" /><path
           d="m 234.66667,234.66667 h -64 c -21.33334,0 -21.33334,-21.33334 -21.33334,-21.33334 H 256 c 0,0 0,21.33334 -21.33333,21.33334 z"
           style="fill:#fdbc34"
           id="path26780-6" /><rect
           style="fill:#e76400;fill-opacity:1;stroke-width:0.574307;paint-order:stroke fill markers"
           id="rect27163"
           width="214.65366"
           height="20.992662"
           x="148.41391"
           y="193.20113" /></g></g></g></svg>
