<?xml version="1.0" standalone="no"?>
<!DOCTYPE svg PUBLIC "-//W3C//DTD SVG 20010904//EN"
 "http://www.w3.org/TR/2001/REC-SVG-20010904/DTD/svg10.dtd">
<svg version="1.0" xmlns="http://www.w3.org/2000/svg"
 width="300.000000pt" height="300.000000pt" viewBox="0 0 300.000000 300.000000"
 preserveAspectRatio="xMidYMid meet">
<metadata>
Created by potrace 1.14, written by Peter Selinger 2001-2017
</metadata>
<g transform="translate(0.000000,300.000000) scale(0.100000,-0.100000)"
fill="#000000" stroke="none">
<path d="M0 1500 l0 -1500 280 0 c163 0 280 4 280 9 0 5 -5 11 -11 13 -6 2 1
16 15 31 14 15 22 27 19 27 -3 0 0 6 6 14 7 8 13 30 15 50 2 20 13 47 25 60
12 13 21 35 21 55 0 17 7 46 16 63 22 43 4 28 -47 -39 -23 -32 -47 -62 -52
-68 -14 -15 44 86 62 110 15 18 15 19 -2 6 -9 -7 -17 -9 -17 -4 0 5 13 19 30
31 16 12 35 32 41 45 6 12 -11 0 -40 -27 -28 -28 -46 -53 -41 -56 5 -3 -14
-26 -42 -50 -29 -25 -48 -38 -43 -30 13 23 108 140 148 185 35 39 47 65 28 65
-5 0 -53 -43 -107 -95 -55 -52 -101 -95 -103 -95 -5 0 3 9 77 89 18 18 29 39
25 45 -3 6 -3 8 1 5 8 -7 86 59 86 73 0 4 -7 8 -16 8 -8 0 -12 5 -9 10 3 5 0
10 -9 10 -13 0 -155 -90 -201 -128 -15 -13 -14 -10 3 9 13 15 65 57 117 95 52
37 92 70 90 72 -2 3 -16 -3 -29 -12 -39 -25 -40 -19 -4 15 21 19 28 32 21 35
-7 3 -9 12 -7 19 4 10 0 13 -15 10 -12 -2 -25 -6 -29 -9 -5 -3 -9 1 -9 8 0 7
15 19 34 25 38 14 44 31 11 32 -20 0 -21 1 -5 8 22 8 22 23 1 34 -9 5 -12 16
-9 27 4 13 -1 22 -14 30 -11 6 -23 25 -27 45 -3 20 -12 35 -20 35 -7 0 -11 6
-8 14 3 8 0 17 -6 21 -8 5 -6 13 7 26 58 60 56 56 32 62 -12 3 -18 10 -14 17
5 8 11 8 19 1 17 -14 26 -4 26 27 0 23 2 24 40 18 25 -4 40 -2 40 4 0 5 -11
10 -25 10 -15 0 -25 6 -25 15 0 7 -7 18 -17 23 -10 6 -14 16 -10 26 4 9 3 16
-1 16 -10 0 -29 44 -24 58 8 25 30 11 35 -23 3 -20 15 -51 27 -70 20 -32 25
-35 71 -35 49 0 50 0 45 -27 -3 -16 -17 -61 -31 -102 -28 -79 -38 -173 -22
-206 5 -11 23 -34 39 -51 30 -32 30 -32 12 -60 -15 -23 -15 -26 -3 -17 9 7 19
10 23 6 4 -4 4 1 0 12 -7 20 -7 20 14 1 27 -24 54 -75 38 -71 -29 6 -45 18
-39 29 4 6 -1 5 -10 -3 -9 -7 -17 -20 -17 -27 0 -8 -5 -14 -11 -14 -5 0 -7 4
-4 10 3 6 -1 7 -9 4 -9 -3 -16 -1 -16 6 0 15 -42 9 -47 -7 -3 -7 6 -15 19 -18
16 -4 24 -14 26 -31 3 -35 10 -44 33 -44 10 0 19 -4 19 -10 0 -5 7 -10 15 -10
8 0 15 -4 15 -8 0 -11 66 -42 91 -42 11 0 30 5 42 11 16 9 22 9 26 -2 9 -27
94 -99 116 -99 13 0 25 -4 27 -10 2 -5 22 -12 46 -14 24 -2 46 -7 49 -10 3 -3
11 1 17 9 9 13 16 13 43 3 18 -7 33 -16 33 -20 0 -4 7 -5 15 -2 8 4 15 13 15
22 0 13 2 13 18 -1 11 -10 22 -13 32 -7 16 10 30 4 30 -12 0 -5 -7 -8 -15 -4
-11 4 -15 -2 -17 -22 -3 -66 11 -91 53 -89 13 0 32 -3 42 -7 13 -6 17 -3 18
10 0 15 2 15 6 4 6 -16 23 -30 37 -30 24 0 -45 167 -116 279 -40 64 -35 46 17
-62 25 -52 45 -100 44 -108 0 -8 -7 3 -16 23 -8 21 -19 38 -24 38 -5 0 -9 8
-9 18 0 23 -58 122 -71 122 -6 0 -7 -5 -3 -11 4 -8 0 -8 -15 0 -24 13 -26 6
-11 -36 l10 -28 -27 32 c-16 17 -39 34 -53 38 -13 4 -30 13 -37 20 -7 7 -18
15 -25 17 -9 3 -8 8 2 20 11 11 21 13 38 7 13 -5 28 -6 33 -3 6 3 16 0 24 -6
8 -7 15 -8 15 -3 0 5 11 9 25 9 14 -1 25 4 26 9 1 18 28 26 49 15 28 -15 26 5
-2 24 -29 21 -16 20 25 0 l32 -17 -20 24 -20 23 38 -22 c21 -12 36 -18 33 -13
-4 5 0 11 6 14 22 7 -22 48 -46 42 -12 -3 -15 -2 -8 1 6 3 10 10 6 15 -11 19
13 8 35 -15 13 -14 32 -24 43 -23 18 1 18 2 2 14 -10 7 -22 13 -27 13 -4 0 -6
4 -3 9 4 5 -13 16 -36 24 -24 9 -36 16 -27 16 9 1 33 -6 53 -14 20 -8 36 -13
36 -10 0 2 11 0 25 -5 34 -13 43 7 11 22 -14 6 -26 15 -26 20 0 4 -11 8 -24 8
-13 0 -29 7 -36 15 -10 12 -9 15 4 15 11 0 14 -5 10 -12 -4 -6 3 -4 17 5 13 9
28 17 34 17 5 0 3 -5 -5 -10 -22 -14 1 -11 28 3 l23 13 -23 12 c-13 6 -50 13
-83 15 l-60 3 65 2 c46 2 61 5 50 12 -8 5 -26 10 -40 11 -19 1 -20 3 -7 6 18
5 17 6 -2 20 -12 8 -18 20 -15 26 5 8 3 8 -7 0 -15 -15 -33 -17 -25 -4 4 5 3
11 -1 14 -5 2 -3 2 4 1 7 -2 15 2 19 8 4 6 3 8 -4 4 -6 -3 -13 -2 -17 4 -3 5
-21 10 -38 10 -20 0 -27 3 -19 8 14 10 6 42 -12 43 -6 0 -21 2 -33 3 -27 3
-31 -10 -5 -18 9 -3 5 -4 -10 -2 -16 2 -28 -1 -28 -5 0 -5 -4 -9 -10 -9 -5 0
-10 9 -10 20 0 14 5 18 18 13 14 -5 13 -3 -3 10 -18 14 -21 14 -27 -1 -6 -15
-8 -14 -14 5 -7 24 -24 31 -24 11 -1 -8 -6 -6 -14 4 -7 10 -16 15 -20 11 -13
-13 -56 42 -62 79 -5 28 -11 38 -25 38 -10 0 -34 9 -53 21 -39 22 -51 11 -14
-13 17 -11 19 -16 8 -23 -8 -5 -11 -4 -7 1 3 6 -8 16 -24 23 -26 11 -27 14
-14 28 17 17 20 33 5 33 -5 0 -10 -7 -10 -16 0 -10 -5 -14 -16 -10 -8 3 -13 2
-10 -3 3 -5 -1 -12 -10 -15 -9 -3 -12 -2 -9 5 4 5 1 17 -7 26 -11 15 -11 16 4
10 10 -3 20 -1 24 6 4 7 4 9 -1 5 -10 -10 -45 10 -45 25 0 7 3 8 8 2 21 -29
37 -8 18 23 -7 12 -4 12 15 2 l24 -13 -25 28 c-23 26 -24 28 -4 23 23 -6 30
18 7 26 -7 3 -13 11 -13 18 0 9 3 9 10 -2 5 -8 12 -11 16 -7 4 4 0 15 -8 24
-8 10 -17 27 -20 38 -4 17 0 21 24 22 25 1 27 -1 16 -16 -12 -14 -11 -14 4 -2
18 14 16 23 -10 53 -11 14 -18 15 -29 7 -16 -14 -17 2 0 21 10 12 9 12 -3 3
-10 -8 -21 -9 -30 -2 -13 8 -13 10 -1 18 8 5 10 14 6 22 -6 9 -11 6 -18 -12
-5 -14 -11 -19 -14 -11 -3 6 -9 10 -13 7 -5 -3 -12 0 -16 6 -4 8 -3 9 5 5 9
-6 11 3 7 32 -2 21 -1 56 4 76 5 22 4 36 -2 36 -5 0 -6 6 -1 13 4 6 6 20 5 29
-2 10 2 27 8 39 7 12 8 19 2 15 -5 -3 -13 1 -16 10 -8 22 -8 24 6 21 17 -3 33
-18 40 -39 4 -9 16 -22 27 -28 21 -11 27 -1 22 39 -2 7 2 10 9 6 9 -5 10 -1 6
16 -7 23 -7 23 9 4 15 -18 15 -18 9 14 -6 28 -4 33 7 26 11 -6 12 -5 2 6 -21
22 -15 34 7 14 19 -17 20 -17 20 1 1 18 79 -131 80 -150 0 -5 -9 -1 -20 9 -11
10 -20 28 -20 39 0 12 -10 27 -22 35 -18 10 -20 11 -10 0 6 -7 12 -19 12 -27
0 -7 14 -31 31 -52 19 -23 28 -43 24 -51 -5 -7 -4 -10 3 -5 6 3 18 -4 26 -16
9 -12 18 -19 22 -15 3 3 13 0 21 -8 23 -24 28 -18 29 35 0 49 8 69 20 57 4 -3
3 -14 0 -24 -4 -10 -7 -19 -7 -20 2 -6 11 -2 13 5 4 15 23 29 35 25 10 -4 8
-13 -7 -33 -11 -15 -20 -33 -20 -39 0 -6 -5 -11 -11 -11 -5 0 -7 -5 -4 -10 4
-6 1 -9 -7 -8 -8 2 -13 -9 -14 -32 0 -20 -6 -51 -12 -70 -6 -19 -13 -53 -17
-75 -3 -22 -12 -60 -20 -85 -24 -75 -24 -94 -2 -106 21 -12 87 1 87 17 0 20
37 28 63 14 16 -8 42 -11 64 -8 21 3 55 5 76 4 24 0 36 3 32 10 -8 12 55 80
67 73 5 -3 8 -2 7 3 -1 4 4 22 10 40 11 27 17 31 41 28 16 -2 32 0 35 6 4 5
15 -1 25 -13 20 -26 18 -35 -14 -49 -19 -8 -18 -9 7 -6 15 3 30 0 33 -5 3 -4
2 -8 -3 -7 -4 1 -23 -2 -41 -6 -30 -7 -31 -9 -14 -21 24 -16 61 -7 96 23 14
13 26 19 26 14 0 -6 -5 -13 -10 -16 -6 -4 -8 -11 -4 -16 3 -5 2 -8 -3 -7 -4 1
-21 -10 -37 -25 -16 -15 -35 -27 -42 -27 -7 0 -10 -8 -7 -20 6 -22 23 -27 23
-7 0 8 3 8 9 -2 6 -10 22 -12 54 -9 51 6 75 -3 55 -19 -7 -6 -26 -13 -43 -16
-24 -3 -22 -4 13 -6 23 0 42 3 42 8 0 11 56 32 64 23 4 -3 -4 -12 -16 -19 -18
-10 -20 -12 -5 -13 9 0 17 -4 17 -10 0 -15 27 -12 44 5 8 8 23 15 33 15 11 0
24 5 30 11 7 7 17 8 28 2 14 -8 12 -11 -16 -17 -27 -5 -31 -9 -19 -16 12 -8
12 -10 1 -10 -30 0 -1 -11 39 -15 65 -7 63 -17 -1 -12 -32 2 -63 0 -70 -4 -10
-7 -9 -9 6 -7 11 0 29 0 40 -1 18 -1 17 -3 -5 -14 -16 -8 -25 -21 -24 -35 1
-18 -2 -21 -20 -16 -21 6 -21 6 -1 -10 15 -12 16 -16 5 -16 -10 0 -7 -5 8 -13
12 -7 19 -16 16 -20 -7 -6 10 -11 29 -8 4 1 30 -11 57 -25 36 -19 61 -25 90
-22 51 5 51 -4 0 -27 -67 -30 -67 -42 -2 -34 64 7 106 -5 58 -17 -20 -5 -24
-9 -14 -15 9 -6 7 -9 -9 -9 -25 0 -39 -16 -21 -23 14 -5 -56 -27 -85 -27 -10
0 -15 -5 -12 -10 3 -6 -1 -10 -10 -10 -9 0 -13 -5 -9 -11 4 -7 0 -9 -14 -5
-12 4 -26 1 -35 -9 -12 -12 -26 -14 -59 -8 -38 6 -40 8 -18 14 23 6 23 7 3 8
-12 1 -24 -3 -27 -7 -9 -14 8 -30 34 -30 26 -1 154 -40 134 -41 -6 -1 -66 11
-133 25 -67 14 -127 23 -134 20 -7 -2 0 -5 16 -5 15 -1 27 -5 27 -10 0 -5 -6
-9 -12 -8 -7 0 -33 -1 -57 -1 -41 -2 -43 -3 -26 -16 17 -12 15 -13 -21 -11
-74 6 -66 -10 26 -50 55 -23 87 -42 82 -47 -6 -6 -31 1 -63 17 -71 37 -129 56
-141 49 -6 -4 -1 -14 13 -25 31 -23 21 -32 -14 -14 -61 31 -11 -7 78 -60 52
-31 95 -58 95 -61 0 -5 -170 85 -185 98 -5 4 -14 8 -20 8 -5 -1 1 -10 14 -20
28 -24 17 -25 -35 -5 -33 14 -21 -1 89 -105 70 -67 127 -127 127 -133 -1 -7
-10 -1 -21 12 -11 13 -22 22 -24 19 -3 -2 9 -18 27 -34 17 -16 28 -24 24 -17
-4 7 0 11 12 10 10 0 35 7 55 17 21 9 42 14 49 10 7 -4 8 -3 4 4 -4 7 6 14 26
20 l32 8 -37 23 c-20 12 -37 25 -37 28 0 3 10 -1 23 -9 41 -26 55 -28 50 -7
-3 10 0 19 6 19 6 0 11 -7 11 -16 0 -13 6 -11 25 10 13 14 29 26 35 26 23 0 8
21 -30 40 -55 28 -51 34 6 9 26 -11 49 -17 52 -14 3 3 2 5 -2 5 -4 0 0 7 8 16
9 8 20 13 26 9 5 -3 7 0 5 7 -4 9 3 14 16 15 12 1 26 7 30 14 4 7 14 9 23 6
10 -4 16 -1 16 8 0 8 6 14 12 12 8 -1 12 6 10 17 -3 18 -2 18 13 6 14 -12 18
-12 25 0 12 19 2 24 -96 51 -43 12 -81 23 -83 25 -8 7 67 -3 106 -16 31 -9 49
-10 73 -1 19 6 39 7 48 2 10 -4 23 -6 29 -4 7 3 16 -2 19 -11 3 -9 11 -16 16
-16 7 0 6 5 -1 13 -8 10 -7 17 1 25 14 14 32 16 24 3 -3 -4 6 -6 20 -3 l25 5
-20 21 -21 22 45 -2 c25 -2 45 1 45 5 0 5 9 11 21 14 12 3 18 10 15 15 -6 11
36 32 64 32 10 0 22 5 25 10 3 6 -2 10 -11 10 -31 0 -5 13 28 14 21 1 32 6 30
14 -2 10 7 11 31 7 33 -6 35 -5 51 34 9 23 23 44 31 46 51 16 51 17 30 25 -17
6 -15 9 18 20 20 8 37 17 37 22 0 4 -8 5 -17 1 -14 -4 -15 -3 -7 6 6 7 21 13
33 14 16 1 29 14 43 43 12 27 30 47 49 54 27 12 41 40 19 40 -5 0 -10 7 -10
15 0 8 4 15 10 15 5 0 7 7 4 15 -4 9 0 15 8 15 8 0 15 7 15 15 0 8 -5 15 -11
15 -6 0 -5 5 2 12 9 9 12 226 12 915 l0 903 -585 0 c-508 0 -585 -2 -585 -15
0 -9 -6 -12 -15 -9 -11 5 -13 2 -9 -10 3 -9 10 -14 14 -11 5 3 11 1 15 -5 3
-5 1 -10 -4 -10 -6 0 -11 -8 -11 -18 0 -10 -7 -28 -16 -41 -14 -19 -14 -25 -3
-32 11 -7 11 -9 -3 -9 -14 0 -16 -7 -11 -37 4 -26 3 -34 -5 -29 -12 7 -17 -10
-13 -51 1 -13 -4 -23 -11 -23 -9 0 -9 -3 0 -12 17 -17 15 -28 -4 -21 -10 4
-15 1 -13 -8 5 -22 -32 -89 -58 -106 -19 -13 -26 -13 -39 -2 -13 10 -17 10
-24 0 -4 -8 -13 -10 -19 -7 -6 4 -11 2 -11 -3 0 -6 -7 -11 -15 -11 -8 0 -15 5
-15 11 0 8 -4 8 -14 0 -8 -7 -25 -14 -38 -15 -13 -2 -31 -7 -40 -11 -9 -4 -21
-4 -27 -1 -5 4 -12 2 -16 -4 -3 -5 -18 -7 -34 -4 -20 4 -30 1 -34 -10 -4 -9
-15 -16 -26 -16 -11 0 -22 -3 -24 -8 -6 -9 -59 -8 -75 2 -7 4 -16 5 -22 1 -32
-20 -54 153 -30 235 14 46 21 106 23 205 l2 80 -603 3 -602 2 0 -1500z m2065
1236 c-33 -14 -102 -30 -93 -21 7 7 89 33 108 34 8 0 2 -6 -15 -13z m-58 -132
c-3 -3 -12 -4 -19 -1 -8 3 -5 6 6 6 11 1 17 -2 13 -5z m136 -43 c8 -8 -4 -10
-44 -8 -30 1 -63 -1 -74 -5 -17 -7 -21 -4 -21 13 0 20 4 21 64 16 35 -3 69
-10 75 -16z m-1518 -111 c13 -6 15 -9 5 -9 -8 0 -22 4 -30 9 -18 12 -2 12 25
0z m1470 0 c8 -13 -5 -13 -25 0 -13 8 -13 10 2 10 9 0 20 -4 23 -10z m48 -17
c-7 -2 -19 -2 -25 0 -7 3 -2 5 12 5 14 0 19 -2 13 -5z m-1418 -63 c15 -6 6 -9
-33 -9 -33 -1 -51 3 -47 9 7 12 52 12 80 0z m1465 -45 c35 -20 2 -20 -36 0
-23 12 -25 15 -9 15 11 -1 31 -7 45 -15z m-1410 -15 c0 -5 -9 -10 -20 -10 -11
0 -20 5 -20 10 0 6 9 10 20 10 11 0 20 -4 20 -10z m13 -32 c21 -11 21 -11 2
-19 -11 -4 -36 -9 -55 -10 -25 -1 -28 -3 -12 -6 12 -2 20 -9 17 -14 -8 -12
-45 -12 -45 1 0 6 -8 10 -17 11 -13 0 -11 3 7 12 14 6 27 14 30 18 5 6 30 17
43 18 5 1 18 -4 30 -11z m1697 -2 c0 -2 -7 -9 -15 -16 -12 -10 -15 -10 -15 4
0 9 7 16 15 16 8 0 15 -2 15 -4z m-1743 -102 c-9 -9 -28 6 -21 18 4 6 10 6 17
-1 6 -6 8 -13 4 -17z m493 -124 c0 -5 -5 -10 -11 -10 -5 0 -7 5 -4 10 3 6 8
10 11 10 2 0 4 -4 4 -10z m-229 -43 c-10 -9 -11 -8 -5 6 3 10 9 15 12 12 3 -3
0 -11 -7 -18z m409 -27 c0 -5 -5 -10 -11 -10 -5 0 -7 5 -4 10 3 6 8 10 11 10
2 0 4 -4 4 -10z m-457 -41 c-6 -6 -9 -1 -7 13 3 33 6 36 11 14 3 -10 1 -22 -4
-27z m-233 -36 c0 -12 -5 -25 -11 -29 -7 -4 -10 -1 -7 7 3 8 -2 23 -11 33 -9
11 -10 16 -3 12 8 -5 12 -1 12 11 0 15 2 16 10 3 5 -8 10 -25 10 -37z m-47
-68 c5 -26 2 -31 -14 -32 -10 -1 -19 5 -19 13 0 8 4 14 8 14 5 0 7 15 5 33 -5
40 11 17 20 -28z m257 30 c0 -8 -2 -15 -4 -15 -2 0 -6 7 -10 15 -3 8 -1 15 4
15 6 0 10 -7 10 -15z m-20 -41 c0 -3 -7 -1 -15 6 -8 7 -15 17 -15 22 0 5 7 3
15 -6 8 -8 15 -18 15 -22z m3 -31 c3 -5 1 -17 -4 -28 -4 -11 -8 -15 -8 -8 -1
6 -4 18 -7 27 -6 16 11 23 19 9z m-148 -13 c3 -5 2 -10 -4 -10 -5 0 -13 5 -16
10 -3 6 -2 10 4 10 5 0 13 -4 16 -10z m-110 -30 c3 -5 -4 -6 -15 -3 -11 3 -22
9 -25 13 -3 5 4 6 15 3 11 -3 22 -9 25 -13z m85 10 c0 -5 -4 -10 -10 -10 -5 0
-10 5 -10 10 0 6 5 10 10 10 6 0 10 -4 10 -10z m8 -37 c-2 -9 -8 -18 -15 -20
-9 -3 -11 11 -4 35 1 1 6 2 12 2 6 0 9 -8 7 -17z m202 -18 c0 -5 -5 -3 -10 5
-5 8 -10 20 -10 25 0 6 5 3 10 -5 5 -8 10 -19 10 -25z m-330 4 c0 -6 -4 -7
-10 -4 -5 3 -10 11 -10 16 0 6 5 7 10 4 6 -3 10 -11 10 -16z m100 -48 c-6 -12
-8 -26 -5 -31 3 -6 2 -10 -3 -10 -18 0 -19 12 -5 41 8 17 17 28 20 25 2 -2 0
-14 -7 -25z m520 25 c0 -3 -4 -8 -10 -11 -5 -3 -10 -1 -10 4 0 6 5 11 10 11 6
0 10 -2 10 -4z m-634 -40 c10 -8 17 -17 14 -19 -3 -3 -16 3 -29 14 -27 22 -15
26 15 5z m136 -38 c-9 -9 -12 -7 -12 12 0 19 3 21 12 12 9 -9 9 -15 0 -24z
m844 -24 c18 -14 18 -14 -6 -3 -31 14 -36 19 -24 19 6 0 19 -7 30 -16z m-936
-23 c0 -16 -28 -20 -40 -5 -10 12 -8 14 14 14 14 0 26 -4 26 -9z m95 -33 c-2
-52 4 -71 19 -65 7 3 12 -3 13 -12 3 -29 11 -68 18 -90 7 -22 -1 -26 -24 -12
-7 5 -11 14 -7 20 7 11 -38 104 -46 96 -3 -3 -11 1 -18 10 -7 8 -19 15 -27 15
-12 0 -13 3 -4 13 6 8 10 16 8 18 -1 2 3 -1 9 -8 6 -7 22 -13 35 -13 20 0 21
2 7 13 -21 17 -31 48 -14 41 8 -3 17 -1 21 5 10 17 11 14 10 -31z m-85 -2 c0
-9 -8 -12 -26 -8 -19 3 -22 7 -12 13 20 13 38 11 38 -5z m852 -29 c5 -9 8 -8
8 3 0 24 49 -42 50 -67 0 -13 -9 -32 -19 -42 -11 -11 -17 -22 -14 -25 3 -3 -2
-18 -12 -33 -21 -31 -62 -76 -50 -53 8 13 6 13 -8 2 -39 -32 -127 -33 -127 -1
0 5 -13 24 -30 42 -30 32 -40 67 -19 67 5 0 7 4 4 10 -3 6 1 7 9 4 11 -4 16 0
16 12 1 17 2 17 13 3 9 -11 20 -14 40 -8 24 6 30 4 36 -14 6 -16 5 -23 -5 -25
-16 -4 -16 -5 -8 -26 14 -36 51 -6 69 54 7 21 6 23 -7 13 -12 -11 -15 -8 -16
20 0 17 1 46 4 64 4 30 6 32 32 22 14 -6 30 -16 34 -22z m-94 -1 c-9 -7 -18
-23 -20 -36 -2 -16 -10 -24 -26 -25 -20 -2 -22 1 -16 34 8 43 17 50 51 43 22
-4 24 -7 11 -16z m-508 -121 c0 -3 -5 -3 -11 1 -9 5 -10 -4 -6 -32 6 -33 5
-35 -4 -14 -6 14 -8 35 -6 47 2 12 0 24 -6 26 -6 2 -12 14 -14 28 -3 21 0 19
22 -13 14 -20 25 -40 25 -43z m765 67 c-12 -9 -13 -55 -1 -64 5 -3 -2 -6 -15
-6 -13 0 -36 -2 -51 -5 -32 -5 -33 -2 -15 36 6 15 20 27 29 27 9 0 20 5 23 10
3 6 14 10 23 10 10 0 13 -3 7 -8z m-755 -22 c0 -5 -2 -10 -4 -10 -3 0 -8 5
-11 10 -3 6 -1 10 4 10 6 0 11 -4 11 -10z m50 -33 c0 -5 -4 -5 -10 -2 -5 3
-10 14 -10 23 0 15 2 15 10 2 5 -8 10 -19 10 -23z m-171 -109 c-8 -16 -8 -23
2 -30 11 -7 11 -11 1 -15 -6 -2 -10 -9 -6 -14 3 -5 0 -9 -6 -9 -7 0 -9 -7 -6
-15 9 -23 -18 -29 -53 -10 -34 17 -41 30 -12 20 20 -6 23 -1 37 65 7 40 22 54
41 38 9 -7 10 -15 2 -30z m-213 -25 c-11 -11 -17 4 -9 23 7 18 8 18 11 1 2
-10 1 -21 -2 -24z m1341 21 c-3 -3 -12 -4 -19 -1 -8 3 -5 6 6 6 11 1 17 -2 13
-5z m106 -1 c-7 -2 -19 -2 -25 0 -7 3 -2 5 12 5 14 0 19 -2 13 -5z m-110 -20
c-7 -2 -19 -2 -25 0 -7 3 -2 5 12 5 14 0 19 -2 13 -5z m307 -7 c0 -2 -7 -7
-16 -10 -8 -3 -12 -2 -9 4 6 10 25 14 25 6z m-380 -20 c0 -2 -7 -7 -16 -10 -8
-3 -12 -2 -9 4 6 10 25 14 25 6z m140 -10 c0 -11 -19 -15 -25 -6 -3 5 1 10 9
10 9 0 16 -2 16 -4z m-235 -26 c-10 -11 -29 -19 -44 -19 l-26 2 27 4 c14 2 32
11 38 19 7 8 15 14 18 14 3 0 -3 -9 -13 -20z m318 3 c-7 -2 -19 -2 -25 0 -7 3
-2 5 12 5 14 0 19 -2 13 -5z m-186 -9 c-3 -3 -12 -4 -19 -1 -8 3 -5 6 6 6 11
1 17 -2 13 -5z m216 -11 c-7 -2 -19 -2 -25 0 -7 3 -2 5 12 5 14 0 19 -2 13 -5z
m-38 -36 c3 -4 2 -5 -1 -2 -4 2 -26 -7 -49 -20 -33 -20 -42 -22 -42 -10 0 9 5
14 11 12 16 -6 48 12 41 24 -7 10 32 7 40 -4z m12 -33 c-3 -3 -12 -4 -19 -1
-8 3 -5 6 6 6 11 1 17 -2 13 -5z m-1122 -22 c-3 -3 -11 0 -18 7 -9 10 -8 11 6
5 10 -3 15 -9 12 -12z m115 -32 c0 -5 -5 -10 -11 -10 -5 0 -7 5 -4 10 3 6 8
10 11 10 2 0 4 -4 4 -10z m1873 3 c-7 -2 -19 -2 -25 0 -7 3 -2 5 12 5 14 0 19
-2 13 -5z m-1698 -143 c3 -5 1 -10 -4 -10 -6 0 -11 5 -11 10 0 6 2 10 4 10 3
0 8 -4 11 -10z m120 -8 c-3 -3 -11 0 -18 7 -9 10 -8 11 6 5 10 -3 15 -9 12
-12z m891 -1 c-3 -5 -17 -11 -32 -14 -29 -5 -20 9 11 16 11 3 21 5 23 6 2 0 1
-3 -2 -8z m-911 -11 c4 -6 -7 -10 -27 -9 -27 0 -30 2 -13 9 27 12 33 12 40 0z
m932 -16 c-3 -3 -12 -4 -19 -1 -8 3 -5 6 6 6 11 1 17 -2 13 -5z m-940 -10 c-3
-3 -12 -4 -19 -1 -8 3 -5 6 6 6 11 1 17 -2 13 -5z m868 -24 c3 -5 1 -10 -4
-10 -6 0 -11 5 -11 10 0 6 2 10 4 10 3 0 8 -4 11 -10z m225 -60 c18 -12 2 -12
-25 0 -13 6 -15 9 -5 9 8 0 22 -4 30 -9z m13 -44 c-10 -13 -20 -22 -22 -20 -4
4 29 44 36 44 2 0 -4 -11 -14 -24z m-1008 -24 c-3 -3 0 -11 6 -18 9 -11 5 -11
-19 -5 -18 6 -34 5 -40 -1 -6 -6 -12 -6 -16 1 -4 6 -2 11 4 11 6 0 9 4 6 8 -3
5 9 7 27 5 18 -2 26 0 20 3 -7 3 -13 10 -13 16 0 6 6 5 15 -2 9 -7 13 -15 10
-18z m-495 -62 c-12 -8 -12 -10 -1 -10 10 0 11 -3 2 -14 -9 -11 -9 -15 1 -19
9 -4 10 -6 1 -6 -7 -1 -18 9 -24 21 -9 17 -9 24 5 33 8 7 14 14 12 17 -1 3 2
1 8 -4 8 -6 6 -12 -4 -18z m1327 24 c-3 -3 -12 -4 -19 -1 -8 3 -5 6 6 6 11 1
17 -2 13 -5z m-1092 -24 c3 -5 1 -10 -4 -10 -6 0 -11 5 -11 10 0 6 2 10 4 10
3 0 8 -4 11 -10z m1147 -6 c29 -15 30 -34 1 -34 -9 0 -13 6 -10 14 3 8 0 17
-8 19 -16 7 -55 -3 -55 -13 0 -4 -10 -10 -22 -13 -23 -6 -23 -6 1 12 18 14 20
20 10 23 -8 3 1 5 20 6 19 0 47 -6 63 -14z m-912 -24 c0 -5 -2 -10 -4 -10 -3
0 -8 5 -11 10 -3 6 -1 10 4 10 6 0 11 -4 11 -10z m365 -8 c-3 -3 -11 0 -18 7
-9 10 -8 11 6 5 10 -3 15 -9 12 -12z m100 8 c3 -5 1 -10 -4 -10 -6 0 -11 5
-11 10 0 6 2 10 4 10 3 0 8 -4 11 -10z m-906 -76 c7 5 10 2 9 -6 -2 -7 3 -12
10 -10 6 1 12 -4 12 -12 0 -11 -5 -12 -25 -3 -14 7 -25 16 -25 20 0 5 -4 5
-10 2 -11 -7 -14 8 -3 18 4 4 10 2 14 -4 4 -6 12 -8 18 -5z m81 -29 c8 0 18 3
21 8 3 4 15 -2 27 -13 13 -12 22 -16 22 -9 0 7 3 10 6 6 3 -3 3 -11 -1 -16 -4
-8 -13 -7 -27 3 -14 10 -28 12 -43 6 -26 -10 -35 -4 -35 19 0 9 3 12 8 6 4 -5
14 -10 22 -10z m858 -25 c3 0 3 -3 0 -6 -7 -6 -78 22 -78 31 0 3 16 -2 36 -10
20 -8 39 -15 42 -15z m-53 -10 c3 -6 -1 -7 -9 -4 -18 7 -21 14 -7 14 6 0 13
-4 16 -10z m-5 -96 c0 -2 -13 2 -30 11 -16 9 -30 18 -30 21 0 2 14 -2 30 -11
17 -9 30 -18 30 -21z m-520 -34 c0 -5 -2 -10 -4 -10 -3 0 -8 5 -11 10 -3 6 -1
10 4 10 6 0 11 -4 11 -10z m137 -142 c-3 -7 -5 -2 -5 12 0 14 2 19 5 13 2 -7
2 -19 0 -25z"/>
<path d="M1629 1404 c-12 -14 -11 -16 5 -13 11 2 21 10 24 17 5 17 -13 15 -29
-4z"/>
<path d="M1030 1769 c0 -5 5 -7 10 -4 6 3 10 8 10 11 0 2 -4 4 -10 4 -5 0 -10
-5 -10 -11z"/>
<path d="M940 1656 c0 -2 8 -10 18 -17 15 -13 16 -12 3 4 -13 16 -21 21 -21
13z"/>
<path d="M970 1330 c0 -5 5 -10 10 -10 6 0 10 5 10 10 0 6 -4 10 -10 10 -5 0
-10 -4 -10 -10z"/>
<path d="M1650 1320 c0 -5 5 -10 10 -10 6 0 10 5 10 10 0 6 -4 10 -10 10 -5 0
-10 -4 -10 -10z"/>
<path d="M1610 1300 c-9 -6 -10 -10 -3 -10 6 0 15 5 18 10 8 12 4 12 -15 0z"/>
<path d="M990 1269 c0 -5 5 -7 10 -4 6 3 10 8 10 11 0 2 -4 4 -10 4 -5 0 -10
-5 -10 -11z"/>
<path d="M1600 1252 c1 -4 16 -14 34 -23 30 -13 37 -14 58 -2 22 14 22 14 -9
9 -18 -3 -35 -2 -37 3 -7 11 -46 21 -46 13z"/>
<path d="M1118 1146 c-4 -19 -1 -22 16 -18 11 3 15 7 9 9 -7 3 -9 11 -6 19 3
8 1 14 -5 14 -5 0 -12 -11 -14 -24z"/>
<path d="M1768 1143 c7 -3 16 -2 19 1 4 3 -2 6 -13 5 -11 0 -14 -3 -6 -6z"/>
<path d="M1838 1093 c7 -3 16 -2 19 1 4 3 -2 6 -13 5 -11 0 -14 -3 -6 -6z"/>
<path d="M2070 865 c7 -9 15 -13 17 -11 7 7 -7 26 -19 26 -6 0 -6 -6 2 -15z"/>
<path d="M1828 683 c7 -3 16 -2 19 1 4 3 -2 6 -13 5 -11 0 -14 -3 -6 -6z"/>
<path d="M2540 686 c0 -2 9 -6 20 -9 11 -3 18 -1 14 4 -5 9 -34 13 -34 5z"/>
<path d="M699 662 c-20 -23 -21 -55 -2 -47 8 3 19 5 24 5 6 0 5 8 -1 20 -6 11
-8 25 -5 30 10 16 1 11 -16 -8z"/>
<path d="M740 610 c-13 -8 -12 -10 3 -10 9 0 17 5 17 10 0 12 -1 12 -20 0z"/>
<path d="M2258 583 c7 -3 16 -2 19 1 4 3 -2 6 -13 5 -11 0 -14 -3 -6 -6z"/>
<path d="M1465 489 c5 -8 27 -39 50 -69 23 -30 44 -59 46 -65 14 -35 92 -165
99 -165 5 0 12 5 15 10 4 6 11 8 16 4 5 -3 16 -1 23 5 7 6 25 12 39 13 l27 2
-31 32 c-17 18 -29 37 -25 42 3 5 -3 17 -14 27 -11 10 -20 14 -20 10 0 -5 -38
28 -84 73 -46 45 -90 82 -99 82 -8 0 -23 3 -33 7 -13 5 -15 3 -9 -8z m245
-174 c7 -9 8 -15 2 -15 -5 0 -12 7 -16 15 -3 8 -4 15 -2 15 2 0 9 -7 16 -15z"/>
<path d="M1400 481 c0 -5 14 -32 32 -58 34 -52 56 -79 44 -53 -4 8 2 4 13 -9
12 -13 21 -28 21 -34 0 -6 -7 -2 -15 9 -24 32 -17 0 22 -96 l37 -91 41 3 c65
5 62 20 -44 183 -62 96 -104 147 -111 135 -5 -8 -11 -7 -24 5 -9 9 -16 12 -16
6z"/>
<path d="M1335 249 c-10 -15 3 -25 16 -12 7 7 7 13 1 17 -6 3 -14 1 -17 -5z"/>
</g>
</svg>
